<svg xmlns="http://www.w3.org/2000/svg" width="760" height="280" viewBox="0 0 760 280" role="img" aria-labelledby="title desc">
  <title id="title">Old arcs and residual gaps</title>
  <desc id="desc">A circle with old covered arcs and uncovered residual gaps.</desc>
  <rect width="760" height="280" fill="#ffffff"/>
  <circle cx="180" cy="130" r="82" fill="none" stroke="#222222" stroke-width="3"/>
  <path d="M 180 48 A 82 82 0 0 1 254 94" fill="none" stroke="#4776b4" stroke-width="15" stroke-linecap="round"/>
  <path d="M 262 130 A 82 82 0 0 1 214 202" fill="none" stroke="#4776b4" stroke-width="15" stroke-linecap="round"/>
  <path d="M 146 205 A 82 82 0 0 1 101 130" fill="none" stroke="#4776b4" stroke-width="15" stroke-linecap="round"/>
  <path d="M 110 88 A 82 82 0 0 1 154 52" fill="none" stroke="#4776b4" stroke-width="15" stroke-linecap="round"/>
  <path d="M 254 94 A 82 82 0 0 1 262 130" fill="none" stroke="#d1495b" stroke-width="9" stroke-linecap="round"/>
  <path d="M 214 202 A 82 82 0 0 1 146 205" fill="none" stroke="#d1495b" stroke-width="9" stroke-linecap="round"/>
  <text x="330" y="78" font-family="Arial, sans-serif" font-size="22" fill="#222222">Old covered set U_k(r)</text>
  <line x1="330" y1="88" x2="455" y2="88" stroke="#4776b4" stroke-width="10" stroke-linecap="round"/>
  <text x="330" y="135" font-family="Arial, sans-serif" font-size="22" fill="#222222">Old residual gaps R_k(r)</text>
  <line x1="330" y1="145" x2="455" y2="145" stroke="#d1495b" stroke-width="8" stroke-linecap="round"/>
  <text x="330" y="193" font-family="Arial, sans-serif" font-size="18" fill="#444444">The theorem classifies when one new q-arc</text>
  <text x="330" y="218" font-family="Arial, sans-serif" font-size="18" fill="#444444">can close a nonempty residual gap.</text>
</svg>
